<svg xmlns="http://www.w3.org/2000/svg" width="1133" height="533" viewBox="0 0 1133 533">
  <defs>
    <style>
      .cls-1 {
        fill-rule: evenodd;
      }
    </style>
  </defs>
  <path id="Léonore" class="cls-1" d="M101.668,373.525c12.022,0.57,37.512,4.191,76.467,8.184a212.259,212.259,0,0,0,28.315,1.42c14.788-.474,26.51-5.715,35.167-15.311A48.2,48.2,0,0,0,254.6,334.523q0-10.011-3.787-15.692t-9.2-5.622a9.561,9.561,0,0,0-7.575,3.522q-2.886,3.462-2.885,9.449a37.745,37.745,0,0,0,2.344,11.243c1.683,4.975,2.525,8.848,2.525,11.647a17.618,17.618,0,0,1-4.779,12,15.718,15.718,0,0,1-11.632,5.606c-4.689.14-12.867-1.3-24.527-4.608-13.467-3.74-22.9-6.306-28.315-7.355a107.012,107.012,0,0,0-17.674-1.816c-10.22-.259-23.926,1.668-41.118,5.612q7.21-10.453,12.263-26.575c4.7-15.02,11.573-45.582,20.616-90.965,5.788-28.514,10.55-48.719,14.287-60.871,5.765-17.894,11.319-31.123,16.662-39.807s10.359-14.355,15.045-17.093a16.027,16.027,0,0,1,10.268-2.364,20.148,20.148,0,0,1,9.277,3.98c3.181,2.291,7.656,6.872,13.421,13.64,5.163,6.265,9.548,9.5,13.152,9.8a8.1,8.1,0,0,0,7.115-3.158,13.021,13.021,0,0,0,2.973-8.747c0-6.281-3.246-12.61-9.739-19.133a39.49,39.49,0,0,0-23.986-11.505c-14.788-1.771-29.427,2.819-43.914,14.222s-26.6,30.416-36.34,57.418c-6.374,17.966-13.467,47.931-21.281,90.364-5.892,32.1-10.55,53.447-13.977,63.7s-7.276,17.32-11.542,21.127-12.714,6.839-25.339,8.868q-1.082,6.434-2.164,12.878c13.585-1.518,29.216-1.666,46.89-.758h0Zm240.762-33.62q-8.838,5.49-16.231,6.089-7.757.612-11.812-4.991t-4.058-20.593a155.517,155.517,0,0,1,1.623-21.788c22.842-13.082,37.751-21.958,44.726-26.805q20.919-14.95,29.035-27.94c5.411-8.691,8.116-17.327,8.116-26.019,0-8.287-2.254-14.746-6.763-19.45s-11.032-7.045-19.567-7.018c-24.409.061-45.388,16.287-62.941,50.425-15.631,30.007-23.445,60.791-23.445,91.393,0,15.158,2.254,26.044,6.763,32.558s11.029,9.4,19.567,8.66c21.039-1.782,46.287-20.793,75.746-54.746q-2.976-4.182-5.952-8.4c-15.27,14.056-26.871,23.7-34.807,28.627h0ZM325.839,237.8q5.769-15.756,14.247-23.455c4.207-3.894,8.535-5.84,12.985-5.877a12.68,12.68,0,0,1,10.55,5.1q4.058,5.148,4.058,13.894c0,7.742-3.308,15.645-9.919,23.807q-14.608,17.534-43.644,33.8A239.1,239.1,0,0,1,325.839,237.8h0Zm16.411-71.06q5.321,0.111,10.64.2,30.57-29.3,61.138-57.059-17.133-.56-34.266-1.288-18.756,28.527-37.512,58.148h0ZM429.9,234.3a149.487,149.487,0,0,0-21.641,78.13c0,16.04,3.936,28.317,11.812,36.589s18.244,11.481,31.11,9.754c20.92-2.8,40.758-16.942,59.514-41.1,18.756-24.177,28.134-49.193,28.134-76.215,0-16.92-3.908-29.878-11.722-39.1s-17.615-13.724-29.4-13.331c-27.052.888-49.657,15.465-67.81,45.274h0Zm70.786-19.329c4.869,7.752,7.3,20.888,7.3,39.531,0,24.855-5.292,46.138-15.87,64.355-8.3,14.042-17.494,21.869-27.593,23.151-7.214.916-12.985-1.893-17.314-8.5-5.892-9.007-8.836-22.055-8.836-38.965,0-27.841,4.779-50.023,14.337-66.155s19.446-24.215,29.667-24.633c7.332-.3,13.436,3.478,18.305,11.22h0Zm81.607-5.215c3.607-2.692,6.371-4.074,8.3-4.17q3.6-.179,3.607,4.574a31.622,31.622,0,0,1-.9,5.86q-8.025,33.939-16.051,68.639-5.592,25-13.165,52.993,13.436-1.89,26.871-3.77,7.3-31.821,14.608-63,4.871-21.078,12.084-30.938a113.481,113.481,0,0,1,28.314-26.8c7.574-5.137,13.765-7.747,18.576-7.953q6.669-.282,6.672,4.877c0,2.335-2.045,10.552-6.131,24.847-13.346,40.354-20.019,66.446-20.019,76.455q0,10.519,3.787,14.673c2.525,2.765,6.07,3.825,10.641,3.209,4.928-.662,11.181-3.73,18.756-9.076a213.58,213.58,0,0,0,34.446-30.507q-2.255-2.683-4.509-5.385-7.938,6.248-15.87,13.641c-7.456,6.917-12.926,10.666-16.412,11.074a3.021,3.021,0,0,1-3.066-1.341,8.981,8.981,0,0,1-1.082-4.987c0-7.41,3.833-22.94,11.5-45.975,8.147-24.581,13.18-40.126,15.1-47.281a47.568,47.568,0,0,0,1.617-11.46q0-7.65-3.962-11.637c-2.64-2.661-6.3-3.959-10.981-3.857-6.363.141-14.464,3.123-24.307,9.154-18.486,11.582-33.849,24.436-46.09,38.316q4.065-17.71,8.13-35.217a30.26,30.26,0,0,0,.9-5.547,4.256,4.256,0,0,0-2.167-3.544,9.83,9.83,0,0,0-5.954-1.354c-6.5.22-14.32,2.805-23.465,7.894s-21.419,15.221-36.821,30.93q3.066,2.973,6.132,5.919a116.018,116.018,0,0,1,20.92-19.256h0Zm165.2,6.876c-14.428,19.075-21.642,40.338-21.642,62.687,0,12.885,3.937,22.678,11.813,29.217s18.243,9.017,31.11,7.683c20.92-2.165,40.758-13.009,59.514-31.332s28.134-37.3,28.134-58.541c0-13.29-3.909-23.751-11.723-31.528s-17.614-11.943-29.4-12.233c-27.052-.674-49.657,10.337-67.81,34.047h0Zm70.786-13.368c4.869,6.374,7.3,16.878,7.3,31.605,0,19.641-5.292,36.191-15.871,50.3-8.3,10.875-17.493,16.9-27.593,17.8-7.214.639-12.985-1.63-17.313-6.928-5.892-7.215-8.837-17.648-8.837-31.168,0-22.251,4.779-39.966,14.338-52.63s19.446-18.766,29.666-18.684C807.3,193.619,813.4,196.9,818.274,203.266Zm96.775,72.6c5.422-17.7,9.457-28.727,12.109-33.435s7.312-10.122,13.979-16.082,12.794-10.144,18.381-12.687,12.825-4.416,21.715-5.529c9.37-1.136,15.225-2.236,17.57-3.52s3.517-3.036,3.517-5.3q0-3.263-3.619-6.247a17.787,17.787,0,0,0-9.034-3.766c-4.94-.695-11.083.754-18.432,4.543a144.248,144.248,0,0,0-41.2,32.388q3.923-11.874,7.845-23.551c1.581-4.874,2.372-7.872,2.372-9.035a3.726,3.726,0,0,0-1.893-3.046,10.669,10.669,0,0,0-5.137-1.623c-6.132-.567-14.935.93-26.413,4.844s-22.985,10.469-34.522,19.853q2.8,2.559,5.591,5.1c9.739-7.328,16.471-11.656,20.2-13.358s6.492-2.464,8.3-2.355q3.964,0.242,3.967,3.531a41.11,41.11,0,0,1-1.623,7.443c-4.57,16.029-9.919,33.148-16.051,51.529q-6.312,18.73-12.624,37.927,13.435-.6,26.872-0.984Q910.981,289.081,915.049,275.865ZM1043.98,290.44a56.086,56.086,0,0,1-16.23,1.426c-5.18-.391-9.11-1.8-11.82-4.3s-4.05-6.7-4.05-12.587a52.794,52.794,0,0,1,1.62-12.662c22.84-4.993,37.75-7.522,44.72-9.142,13.95-3.337,23.63-6.627,29.04-10.439s8.12-8.083,8.12-13.03q0-7.068-6.77-12.626c-4.51-3.7-11.03-6.515-19.57-8.263-24.4-5.007-45.38,1.046-62.94,19.07-15.627,15.838-23.441,33.711-23.441,51.951q0,13.574,6.763,19.92c4.509,4.226,11.028,6.435,19.568,6.806,21.04,0.964,46.29-7.224,75.74-21.031q-2.97-2.959-5.95-5.933c-15.27,5.219-26.87,9.105-34.8,10.843h0Zm-16.6-62.037a29.309,29.309,0,0,1,14.25-11.447,24.341,24.341,0,0,1,12.99-1.109,20.513,20.513,0,0,1,10.55,4.963,11.679,11.679,0,0,1,4.06,8.8c0,4.461-3.31,8.339-9.92,11.864-9.74,5.011-24.29,9.129-43.65,13.107a82.158,82.158,0,0,1,11.72-26.182h0Z"/>
</svg>
